<?xml version="1.0" standalone="no"?>
<!DOCTYPE svg PUBLIC "-//W3C//DTD SVG 20010904//EN"
 "http://www.w3.org/TR/2001/REC-SVG-20010904/DTD/svg10.dtd">
<svg version="1.0" xmlns="http://www.w3.org/2000/svg"
 width="512.000000pt" height="512.000000pt" viewBox="0 0 512.000000 512.000000"
 preserveAspectRatio="xMidYMid meet">
<metadata>
Created by potrace 1.14, written by Peter Selinger 2001-2017
</metadata>
<g transform="translate(0.000000,512.000000) scale(0.100000,-0.100000)"
fill="#000000" stroke="none">
<path d="M2339 3736 c-2 -2 -51 -6 -109 -10 -125 -7 -192 -15 -359 -41 -68
-11 -117 -19 -121 -20 -19 -4 -119 -26 -135 -30 -207 -43 -520 -159 -711 -260
-72 -39 -208 -126 -259 -166 -35 -28 -193 -185 -215 -214 -103 -136 -150 -261
-155 -410 -5 -122 11 -199 66 -312 58 -122 197 -284 310 -364 19 -13 36 -27
39 -30 29 -36 299 -183 450 -244 189 -78 496 -164 674 -191 21 -3 48 -7 59
-10 18 -3 116 -16 222 -29 164 -20 603 -27 795 -13 87 7 299 32 360 42 14 3
54 10 90 16 54 10 111 22 250 55 61 15 261 79 335 108 502 195 819 474 906
797 34 125 10 338 -48 426 -8 13 -12 24 -9 24 17 0 -107 164 -178 236 -132
132 -286 237 -492 334 -102 48 -312 129 -394 151 -25 7 -49 14 -55 15 -48 14
-176 45 -200 49 -16 3 -46 10 -65 15 -54 13 -298 49 -440 65 -66 7 -604 17
-611 11z"/>
</g>
</svg>
